<?xml version="1.0" encoding="utf-8"?>
<!-- Generator: Adobe Illustrator 19.0.0, SVG Export Plug-In . SVG Version: 6.00 Build 0)  -->
<svg version="1.1" id="Layer_1" xmlns="http://www.w3.org/2000/svg" xmlns:xlink="http://www.w3.org/1999/xlink" x="0px" y="0px"
	 viewBox="0 0 512 512" style="enable-background:new 0 0 512 512;" xml:space="preserve">
<style type="text/css">
	.st0{fill:#910C2C;}
	.st1{fill:#FFFFFF;}
</style>
<path id="XMLID_5_" class="st0" d="M411.3,501.2H100.7c-49.5,0-89.9-40.5-89.9-89.9V100.7c0-49.5,40.5-89.9,89.9-89.9h310.5
	c49.5,0,89.9,40.5,89.9,89.9v310.5C501.2,460.7,460.7,501.2,411.3,501.2z"/>
<path id="XMLID_156_" class="st1" d="M271.8,106.1c0,12.9-2.2,22.7-6.8,29.9c-4.6,7.2-10,12.9-17,17.5c4.6,2.2,8.9,4.8,13.3,8.1
	c4.4,3.3,8.1,7.2,11.3,11.8c3.5,4.8,6.1,10.3,8.1,16.4c2,6.3,3.1,13.5,3.1,21.8c0,15.3-3.1,27.7-8.9,37.3
	c-5.9,9.6-13.5,17.2-22.7,22.7s-19.4,9.4-30.3,11.3c-10.9,2.2-21.4,3.3-31.4,3.3h-74.8l-0.4-245h72c11.3,0,21.8,1.1,32.1,3.5
	c10.3,2.8,19.2,6.5,27.1,11.8c7.6,5,14,11.8,18.5,20.1C269.4,84.7,271.8,94.6,271.8,106.1z M158.7,138.2h24.9c6.1,0,12-0.7,17.5-1.7
	c5.5-1.1,10.3-3.1,14.2-5.7c3.9-2.6,7.2-5.7,9.6-9.8c2.4-3.9,3.5-8.9,3.5-14.8s-1.3-10.7-3.9-14.4c-2.6-3.7-5.7-6.8-9.6-8.9
	c-3.9-2-8.3-3.5-13.3-4.4c-5-0.7-9.8-1.1-14.6-1.1h-28.6v61.1h0.4V138.2z M188.2,250.8c35.1,0,52.6-13.5,52.6-40.6
	c0-6.3-1.3-12-3.9-16.4c-2.6-4.6-6.1-8.3-10-11.3c-3.9-3.1-8.5-5-13.5-6.3s-9.6-2-14-2h-40.6V251L188.2,250.8L188.2,250.8z"/>
<path id="XMLID_68_" class="st1" d="M235.7,427.6c3.3,11.3,8.7,17.9,15.9,19.2c7.4,1.5,15.7,0,25.3-4.4c9.6-4.6,19.6-11.1,30.3-20.1
	c10.7-8.7,20.9-18.1,30.5-28.1c9.8-9.8,18.8-19,26.6-27.9c7.9-8.7,14.2-15.3,18.5-19.2c2.8-2.8,5.9-4.1,8.7-4.4
	c3.1-0.2,5.7,0.7,7.4,2.4c2,1.7,3.1,3.9,3.5,6.8c0.4,2.8-0.7,5.9-2.8,8.7c-5.2,5.7-11.3,12.2-18.8,20.1s-15.5,15.7-24.4,24.2
	c-8.7,8.5-18.3,16.6-28.4,24.7c-9.8,8.1-19.9,15.3-29.7,21.6c-9.8,6.3-19.6,11.6-29.2,15.5c-9.6,3.9-18.3,5.9-26.6,5.9
	c-8.9-0.2-16.6-2.8-22.5-8.3c-6.1-5.2-10.5-13.3-13.3-24.2c-3.1-10-4.6-20.3-4.4-30.5c0.2-10.3,0.9-20.5,2.6-30.8
	c8.5-55,27.3-104.3,56.7-147.5c5.9-8.3,12.2-15.7,19-22.7c6.5-7,14-13.1,21.6-18.1c5.7-3.7,11.3-6.3,17.2-8.3s12-2.6,18.3-2.2
	c6.3,0.7,12,2.4,17.5,5.9c5.2,3.3,10,7.6,14,13.3c3.9,5.2,6.8,11.6,8.7,18.5s2.8,14.2,2.4,21.6c-0.7,10-2.8,19.6-6.1,28.8
	c-3.3,9.2-6.5,18.1-10.3,27.1c-2.4,5.2-5.9,6.8-10.5,5c-2.6-1.1-4.1-2.8-5-5c-0.7-2.4-0.9-5-0.4-8.1c0.7-2.8,6.1-26,7-30.8
	c0.9-4.8,1.3-9.8,1.3-15.1c0-10.9-2.8-19.2-8.7-24.4c-5.9-5.2-13.3-5.7-22-1.5c-10,5.2-19.2,12.2-27.9,20.9
	c-12.2,14.2-22.7,30.1-31,47.6c-8.5,17.5-15.5,36.2-21.2,55.6c-2,7-3.9,14-5.2,20.9c-1.5,7-2.8,14.2-4.1,21.4
	c-1.3,8.3-2.2,16.4-2.8,24.2C233.3,412.8,233.7,420.4,235.7,427.6z"/>
</svg>
