<?xml version="1.0" encoding="utf-8"?>
<!-- Generator: Adobe Illustrator 19.0.0, SVG Export Plug-In . SVG Version: 6.00 Build 0)  -->
<svg version="1.1" id="Layer_1" xmlns="http://www.w3.org/2000/svg" xmlns:xlink="http://www.w3.org/1999/xlink" x="0px" y="0px"
	 viewBox="-16 141.2 478.3 230.8" style="enable-background:new -16 141.2 478.3 230.8;" xml:space="preserve">
<style type="text/css">
	.st0{fill:#7C7C7D;}
</style>
<g id="XMLID_130_">
	<g id="XMLID_250_">
		<g id="XMLID_251_">
			<path id="XMLID_259_" d="M53.5,199.6c-1.5-2.1-3.2-3.8-5.1-5.2c-1.9-1.4-3.9-2.6-5.9-3.6c3.1-2,5.6-4.6,7.6-7.7s2.9-7.6,2.9-13.2
				c0-5.1-1-9.5-3-13.2s-4.7-6.6-8.2-8.9c-3.4-2.3-7.4-3.9-11.9-5c-4.5-1.1-9.2-1.6-14.2-1.6h-31.8l0.2,108.5h33.1
				c4.4,0,9-0.5,13.9-1.4c4.9-0.9,9.3-2.6,13.4-5.1c4.1-2.4,7.4-5.8,10-10c2.6-4.3,3.9-9.8,3.9-16.5c0-3.7-0.4-6.9-1.3-9.7
				C56.2,204.1,55,201.7,53.5,199.6z M3.1,157h12.6c2.1,0,4.3,0.2,6.5,0.5c2.2,0.4,4.1,1,5.9,2c1.7,1,3.1,2.3,4.3,3.9
				c1.1,1.7,1.7,3.8,1.7,6.4c0,2.6-0.5,4.8-1.6,6.6s-2.5,3.2-4.3,4.4c-1.8,1.1-3.9,2-6.3,2.5s-5,0.8-7.7,0.8h-11V157H3.1z
				 M16.1,233.9h-13v-34h18c1.9,0,3.9,0.3,6.1,0.9c2.2,0.6,4.2,1.5,6,2.8c1.8,1.3,3.3,3,4.4,5c1.2,2,1.8,4.4,1.8,7.3
				C39.4,227.9,31.6,233.9,16.1,233.9z"/>
			<path id="XMLID_256_" d="M108.7,141.2l-37.6,86.1l11.8,2.5c1.9-4.4,2.4,10.7,4.6,5.4c2.2-5.3,4.3-10.2,6.3-14.8h39.8l12.6,29.3
				h20.1l-47.6-108.5H108.7z M123.7,196.1c1,2.4,2.2,5.2,3.5,8.4h-27c2.4-6.2,4.7-11.9,6.9-17.3c2.3-5.4,4.4-10.8,6.6-16.1
				c1.5,4,2.9,7.4,4,10.1c1.1,2.7,2.2,5.3,3.1,7.6C121.7,191.3,122.7,193.7,123.7,196.1z"/>
			<polygon id="XMLID_255_" points="172,249.7 191,249.7 191,141.2 171.8,141.2 			"/>
			<polygon id="XMLID_254_" points="224.3,141.2 205.3,141.2 205.4,249.7 278.3,249.7 278.3,233.9 224.3,233.9 			"/>
			<polygon id="XMLID_253_" points="305.6,199.9 347.3,199.9 347.3,184.1 305.6,184.1 305.6,157 356.4,157 356.4,141.2 286.3,141.2 
				286.5,249.7 360.3,249.7 360.3,233.9 305.6,233.9 			"/>
			<path id="XMLID_252_" d="M440.3,141.2l-20.6,29.3c-1.4,2-2.9,4.1-4.4,6.1c-1.5,2.1-3,4.1-4.5,6.1l-30.6-41.6h-22.1l43.7,58.7
				v49.8h19v-49.5l41.6-58.9H440.3z"/>
		</g>
	</g>
</g>
<g id="XMLID_67_">
	<path id="XMLID_68_" class="st0" d="M32.5,327.9c1.5,5,3.8,7.9,7.1,8.5c3.3,0.6,7,0,11.2-2s8.7-5,13.4-8.9
		c4.7-3.9,9.3-8.1,13.6-12.4c4.3-4.3,8.3-8.4,11.8-12.3c3.5-3.9,6.3-6.7,8.2-8.5c1.3-1.3,2.6-1.9,3.9-2c1.4-0.1,2.5,0.3,3.3,1
		c0.9,0.7,1.4,1.7,1.5,3c0.2,1.3-0.3,2.6-1.3,3.9c-2.3,2.5-5,5.5-8.3,8.9c-3.2,3.4-6.8,7-10.8,10.7c-3.9,3.7-8.1,7.3-12.5,10.9
		c-4.4,3.5-8.8,6.7-13.2,9.6c-4.4,2.8-8.7,5.1-12.9,6.8s-8.1,2.6-11.8,2.6c-4-0.1-7.3-1.3-10-3.7c-2.7-2.3-4.6-5.9-5.9-10.7
		c-1.4-4.4-2-8.9-2-13.5c0.1-4.6,0.4-9.1,1.1-13.7C22.7,281.7,31,260,44,240.8c2.6-3.6,5.4-7,8.4-10.1s6.2-5.8,9.6-8
		c2.5-1.6,5-2.8,7.6-3.7c2.6-0.9,5.3-1.2,8.1-0.9c2.7,0.2,5.3,1.1,7.7,2.6c2.4,1.5,4.4,3.4,6.2,5.8c1.7,2.4,3,5.1,3.9,8.2
		c0.9,3.1,1.3,6.3,1,9.6c-0.3,4.4-1.2,8.7-2.6,12.7c-1.4,4-2.9,8.1-4.5,12c-1,2.3-2.6,3-4.6,2.2c-1.1-0.5-1.9-1.2-2.2-2.2
		c-0.3-1-0.4-2.2-0.2-3.6c0.2-1.3,0.5-2.4,0.9-3.5c0.4-1.1,0.7-2.2,0.9-3.5c0.3-2.3,0.7-4.5,1.1-6.7s0.6-4.4,0.6-6.7
		c0-4.9-1.3-8.5-3.9-10.8s-5.9-2.5-9.7-0.7c-4.4,2.3-8.5,5.4-12.3,9.2c-5.5,6.3-10.1,13.3-13.8,21c-3.7,7.7-6.8,16-9.3,24.6
		c-0.9,3.1-1.7,6.2-2.4,9.2c-0.7,3.1-1.3,6.2-1.9,9.4c-0.6,3.6-1,7.2-1.2,10.7C31.5,321.4,31.7,324.7,32.5,327.9z"/>
	<path id="XMLID_70_" class="st0" d="M144.8,296.3c2.2,0.3,4.1,0.3,5.9,0c1.8-0.3,3.6-0.8,5.4-1.4c0.6-0.2,1.1-0.5,1.7-0.7
		c0.6-0.2,1.1-0.3,1.5-0.2c1.5,0.3,2.5,1.3,3.1,2.7c0.2,0.3,0.3,0.9,0.1,1.7c-0.2,0.8-0.5,1.4-0.9,1.7c-1.6,1.4-3.2,2.3-4.8,2.7
		c-1.7,0.5-3.4,0.9-5.1,1.2c-1.7,0.3-3.5,0.6-5.3,0.7c-1.3,0-2.3,0.3-3.2,0.8s-1.7,1.5-2.5,2.8c-1.7,3-3.8,5.3-6.2,7.1
		c-2.5,1.8-5.2,2.9-8.1,3.5c-2.7,0.7-5.2,0.7-7.4,0c-2.2-0.7-4.1-1.9-5.6-3.6c-1.5-1.7-2.6-3.8-3.2-6.4c-0.6-2.6-0.6-5.3,0-8.3
		c0.9-4.1,2.3-7.7,4.1-10.8c1.8-3.1,4.6-5.5,8.2-7.2c0.7-0.3,1.3-0.8,1.9-1.4s1.1-1.1,1.7-1.7c1.9-2.3,4.1-3.5,6.5-3.8
		c2.4-0.2,4.7,0.8,6.8,3.1c3.1,3.2,4.8,7.4,5.1,12.6c0,0.6,0,1.3,0.1,2.1C144.6,294.6,144.7,295.4,144.8,296.3z M124.3,294.1
		c-1.3,1.6-2.1,3.2-2.6,4.9c-0.5,1.7-0.9,3.4-1.1,5.2c-0.3,3.6,1,5.3,4.1,5c1.9-0.2,3.6-0.8,5-1.6c1.4-0.9,2.6-2.2,3.7-4.2
		c-1.9-0.9-3.7-1.9-5.3-3.1C126.5,299.1,125.2,297.1,124.3,294.1z M132.8,285.7c-0.5,2.6-0.5,4.3-0.1,5.1c0.4,0.8,1.6,1.5,3.5,2.1
		c-0.1-1.1-0.2-2.1-0.3-2.7c-0.1-0.7-0.3-1.3-0.5-1.7c-0.2-0.5-0.5-0.9-0.9-1.3S133.5,286.3,132.8,285.7z"/>
	<path id="XMLID_74_" class="st0" d="M176.1,303.8c-1.1,1.5-2.2,2.8-3.2,4c-1,1.2-2.1,2.4-3.1,3.5c-1,0.9-2.1,1.9-3.2,2.9
		c-1.1,1-2.2,1.8-3.3,2.4c-2.1,1.3-4,1.5-5.7,0.8c-1.8-0.7-3-2.2-3.7-4.5c-0.6-1.6-0.7-3.1-0.5-4.6c0.9-5.1,2.5-9.8,4.8-14
		s5.6-7.8,9.9-10.8c2.8-1.9,5.7-3,8.5-3.2s5.8,0.6,8.7,2.4c1.7,1,2.8,2,3.4,3c0.6,1,0.7,2.5,0.3,4.5c-0.2,1.8-0.5,3.6-0.9,5.4
		c-0.4,1.8-0.7,3.6-0.9,5.6c-0.2,1.7-0.5,3.4-0.7,5.2s-0.2,3.2,0.1,4.2s0.9,1.5,1.7,1.5s2.2-1,4.2-2.9c1.6-1.8,2.8-3.2,3.7-4.3
		c0.9-1.1,1.6-2,2.4-2.8c0.7-0.9,1.5-1.8,2.4-2.8s2.1-2.4,3.7-4.1c0.5-0.5,0.9-0.9,1.5-1.4c0.5-0.5,1.1-0.8,1.6-1
		c0.6-0.2,1.2-0.2,2,0.1c0.7,0.3,1.3,0.7,1.6,1.1c0.3,0.2,0.5,0.7,0.4,1.3c-0.1,0.6-0.1,1.2-0.3,1.8c-0.1,0.5-0.5,1-1.2,1.7
		c-1.4,1.7-2.5,3-3.2,4c-0.8,1-1.5,1.9-2.2,2.6c-0.7,0.8-1.5,1.7-2.3,2.6c-0.9,1-2,2.3-3.5,4c-1,1.3-2.1,2.4-3.2,3.4
		c-1.1,1-2.3,2-3.5,2.9c-3,1.9-5.5,2.8-7.6,2.7c-2.1-0.1-3.8-1-5.1-2.6c-1.3-1.6-2.3-3.7-2.8-6.3C176.2,309.6,176,306.8,176.1,303.8
		z M161.5,309c1.1-0.8,2.6-2.2,4.4-4.1c1.8-1.9,3.6-4,5.4-6.1s3.4-4.2,4.8-6.2c1.4-2,2.3-3.5,2.6-4.5c-1.9-0.2-3.9,0.1-5.8,1.1
		c-1.9,1-3.7,2.4-5.2,4.3c-1.5,1.9-2.9,4.2-4,6.8C162.6,303,161.9,305.9,161.5,309z"/>
	<path id="XMLID_77_" class="st0" d="M216.6,293.4c-3.1,5.7-4.8,9.9-5,12.5c-0.3,2.6,0.3,4.2,1.9,4.8c1.5,0.6,3.7,0.3,6.4-0.9
		c2.7-1.1,5.6-2.6,8.6-4.5s5.9-4,8.6-6.2c2.7-2.3,4.8-4.3,6.3-6c0.8-0.9,1.6-1.3,2.4-1.3c0.8,0.1,1.5,0.4,2.1,0.9
		c0.6,0.6,0.9,1.3,1,2.3s-0.2,2-0.9,3c-2.1,2.1-4.6,4.4-7.6,6.9c-3,2.6-6.2,5-9.7,7.2c-3.4,2.2-6.9,4-10.4,5.4
		c-3.5,1.4-6.8,1.9-9.9,1.7c-3.1-0.2-5.5-1.6-7.3-4c-1.8-2.4-2.4-5.7-1.8-9.7c0.3-2.5,1-5.1,1.9-7.7s2.1-5,3.5-7.3
		c1.4-2.2,3.1-4.2,5-5.8c1.9-1.7,4.2-2.9,6.7-3.7c3.2-0.9,5.9-0.5,8.2,1.2s3.4,4.2,3.4,7.5c0.1,1.3,0,2.3-0.4,3.2
		c-0.4,0.9-1.3,1.7-2.6,2.2c-1.3,0.3-2.3,0.2-3.1-0.5c-0.8-0.7-1.4-1.5-1.7-2.6c-0.3-1.1-0.7-1.8-1.2-2.1c-0.5-0.2-0.9-0.2-1.5,0.2
		s-1,0.8-1.5,1.5C217.5,292.4,217,293,216.6,293.4z"/>
	<path id="XMLID_79_" class="st0" d="M287.3,308.8c1.8-2.2,3.5-4.3,5.1-6.4c1.6-2.1,3.2-4.3,4.8-6.6c0.5-0.6,0.9-1.1,1.2-1.5
		s0.7-0.8,1-1.3c0.7-0.7,1.4-1.2,2.1-1.5c0.7-0.3,1.5-0.1,2.4,0.4c0.9,0.7,1.4,1.4,1.5,2.1c0.1,0.7-0.2,1.5-0.8,2.3
		c-1,1.6-2,3.2-3,4.7s-2.1,3.1-3.3,4.7c-1.6,1.9-3.1,3.9-4.5,5.9s-3,3.8-4.9,5.6c-2.6,2.7-5.2,3.8-7.7,3.3s-4.5-2.5-6-5.9
		c-1.3-3.6-2-7.1-2.4-10.5c-0.3-3.4-0.7-6.8-1-10.2c-1.6,0.9-3.1,2.1-4.5,3.6s-2.8,3.1-4,5c-1.3,1.8-2.4,3.6-3.5,5.5
		c-1.1,1.8-2.1,3.4-3.2,4.8c-0.3,0.6-0.5,1.3-0.6,2.1c-0.1,0.8-0.1,1.5-0.3,2.2c-0.5,2.4-1.5,4-3.2,4.9c-1.7,0.9-3.5,0.7-5.6-0.6
		c-2.4-1.4-3.7-3.5-3.9-6.3c-0.6-5.2-0.7-11.6-0.5-19s0.7-14.8,1.5-22.1c0.7-7.3,1.7-14.2,2.9-20.6s2.5-11.2,4-14.5
		c0.7-1.7,1.7-2.9,3.2-3.5c1.4-0.6,2.8-0.8,4-0.6c1.3,0.2,2.2,0.9,2.9,2.1c0.7,1.1,0.7,2.7,0.2,4.6c-1.1,3.6-2.1,8.2-3,13.7
		s-1.6,11.1-2.2,16.8c-0.6,5.8-1.1,11.3-1.3,16.7s-0.3,9.9-0.3,13.4c2.3-2.8,4.5-5.6,6.7-8.2c2.2-2.6,4.6-5.1,7.2-7.3
		c2.6-2.3,5.1-3,7.4-2.2c2.3,0.8,3.9,2.9,4.7,6.3c0.5,1.9,0.7,3.9,0.9,5.9c0.1,2,0.3,4,0.5,6.1c0.1,1.6,0.3,3.2,0.4,4.7
		c0.2,1.5,0.4,2.7,0.8,3.6c0.4,0.9,0.9,1.2,1.5,1C285.1,311.8,286.1,310.7,287.3,308.8z"/>
	<path id="XMLID_81_" class="st0" d="M307,313.1c0.6,0.5,1.6,0,3-1.3c1.4-1.3,3-3,4.7-5c1.7-2.1,3.5-4.2,5.4-6.4
		c1.9-2.2,3.5-4,4.9-5.2c0.7-0.6,1.4-0.9,2.1-0.9c0.7,0,1.4,0.2,2,0.6s0.9,0.9,1.1,1.6c0.2,0.7,0,1.5-0.4,2.4
		c-0.6,1-1.3,2.1-2.1,3.1c-2.3,2.4-4.5,4.8-6.6,7.3s-4.3,5-6.6,7.3c-1.3,1.3-2.8,2.3-4.6,3.2c-3.3,1.7-6.3,1.9-9,0.7
		c-2.7-1.3-4.3-3.7-4.9-7.3c-0.6-3.6-0.5-7.6,0.3-11.8c0.8-4.2,1.9-8,3.4-11.3c0.6-1.5,1.4-2.5,2.6-3.1c1.1-0.6,2.3-0.6,3.6-0.2
		c2.6,0.9,3.8,2.8,3.4,5.8c-0.1,1.8-0.4,4-0.8,6.5c-0.4,2.5-0.7,4.7-0.9,6.5c-0.2,0.9-0.3,2-0.3,3.2S307.2,311.5,307,313.1z
		 M307.5,273.9c0.6,0,1.2,0.3,1.8,0.8s1.2,1.1,1.7,1.7c0.5,0.6,0.9,1.3,1.2,2c0.3,0.7,0.4,1.3,0.3,1.7c-0.2,0.6-0.7,1.1-1.4,1.7
		s-1.3,0.9-1.9,1c-0.7,0-1.4-0.2-2.1-0.5c-0.7-0.3-1.3-0.8-1.8-1.5c-0.5-0.6-0.9-1.3-1.3-2c-0.4-0.7-0.5-1.3-0.5-1.9
		c0.2-0.9,0.7-1.7,1.4-2.3C305.6,274.1,306.4,273.8,307.5,273.9z"/>
	<path id="XMLID_84_" class="st0" d="M350.2,287.8c2.3-1.7,4.6-2.2,7-1.5c2.4,0.7,3.9,2.5,4.4,5.5c0.2,1.6,0.3,3.6,0.3,6
		c0,2.4,0,4.8,0.1,7.1c0.1,2.3,0.2,4.4,0.5,6.1c0.3,1.7,0.8,2.6,1.6,2.7c0.6,0,1.4-0.5,2.4-1.5c1.4-1.4,2.8-3,4.4-5
		c1.5-1.9,3-3.8,4.4-5.7s2.6-3.5,3.6-5c1-1.4,1.7-2.3,2.1-2.6c0.5-0.5,1-0.6,1.5-0.5c0.6,0.1,1.1,0.4,1.5,0.9s0.7,1,0.9,1.7
		c0.2,0.7,0.3,1.3,0.2,1.7c-0.2,1.4-1.1,3.2-2.6,5.5s-3.2,4.6-5.1,6.9c-1.9,2.3-4,4.4-6.1,6.3c-2.1,1.9-3.9,3.1-5.4,3.7
		c-2.2,0.8-4.2,0.8-6.2,0s-3.4-2.6-4.4-5.5c-0.6-1.8-0.9-3.8-1.1-5.9c-0.2-2.1-0.4-4.1-0.6-6.1c-0.1-1-0.2-2.1-0.2-3.2
		c0-1.1-0.1-2.4-0.2-3.8c-1.9,1.7-3.5,3.5-4.8,5.4c-1.3,1.9-2.5,3.8-3.6,5.7s-2.3,3.9-3.4,5.8c-1.1,1.9-2.5,3.8-4.1,5.5
		c-1.9,1.6-4.1,2.4-6.5,2.3s-4.3-1.2-5.6-3.3c-0.9-1.4-1.4-3-1.5-4.8c-0.1-1.8-0.2-3.6-0.3-5.3c0-4.2,0.3-8.5,0.8-12.7
		c0.5-4.3,1.5-8.5,2.8-12.6c0.3-1,0.7-1.9,1-2.6c1.5-3.5,3.5-4.7,6.2-3.6c1.1,0.2,2.1,0.9,2.8,2.1s0.8,2.7,0.3,4.5
		c-0.8,2.6-1.5,5.3-2.1,8s-1.1,5.3-1.3,7.7c-0.2,2.4-0.3,4.5-0.3,6.2c0.1,1.8,0.4,3,0.9,3.8c0.7,0.6,1.6,0,2.8-1.7
		c1.2-1.7,2.5-3.8,3.9-6.2c1.4-2.4,2.9-4.8,4.4-7.2C347.2,290.3,348.7,288.7,350.2,287.8z"/>
	<path id="XMLID_86_" class="st0" d="M402.6,310c-2.5,1.9-5.2,3.8-7.9,5.5c-2.8,1.7-5.4,2.8-7.9,3.3s-4.6,0.3-6.5-0.8
		c-1.9-1-3.2-3.2-3.8-6.7c-0.5-3-0.3-6.2,0.4-9.6s1.9-6.7,3.4-9.9c1.5-3.2,3.4-6.1,5.7-8.8c2.3-2.7,4.8-4.7,7.5-6.1
		c2.7-1.4,5.7-2,8.9-2c2.4,0.1,4.4,1,6.2,2.6c1.7,1.7,2.5,3.6,2.4,5.9c-0.2,1.8-1,3.2-2.2,4.3c-0.8,0.6-1.6,0.7-2.4,0.3
		c-0.8-0.3-1.5-1-2.1-1.9c-0.2-0.2-0.5-0.5-0.7-0.9s-0.5-0.7-0.7-0.9c-2.2,0.3-4.4,1.7-6.8,4.2c-2.3,2.5-4.4,5.2-6.1,8.2
		c-1.7,3-2.8,6-3.4,8.9c-0.6,2.9-0.2,5,1.2,6.2c1.5-0.3,3-1,4.6-2s3.1-2.1,4.4-3.3c1.4-1.3,2.6-2.6,3.8-4.1c1.1-1.5,2.1-2.9,2.9-4.3
		c0.5-0.7,1-1.3,1.5-2c0.6-0.6,1.3-1.1,2.1-1.5c2.2-1.1,4.1-1.1,5.9,0.1c1.8,1.2,2.7,3,2.8,5.6c0,2.3-0.1,4.6-0.2,6.9
		c-0.1,2.3-0.3,4.6-0.5,6.9c-0.9,8.4-2.5,16.6-4.8,24.4c-2.3,7.9-4.9,15.7-7.9,23.6c-0.5,1-0.9,2.1-1.5,3.2c-0.5,1.1-1.2,2.1-2.1,3
		c-1.6,1.6-3.4,2.7-5.5,3.4c-2.6,0.8-4.8,0.2-6.5-1.9c-0.9-1.1-1.3-2.2-1.1-3.2s0.5-2.2,0.9-3.4c1.5-3.6,3-7.7,4.5-12.2
		s3-9.1,4.4-13.8c1.4-4.7,2.6-9.4,3.8-14.1C400.8,318.5,401.8,314.1,402.6,310z"/>
</g>
<polygon id="XMLID_1_" points="224.3,141.2 205.3,141.2 205.4,249.7 278.3,249.7 278.3,233.9 224.3,233.9 "/>
</svg>
