<?xml version="1.0" encoding="utf-8"?>
<!-- Generator: Adobe Illustrator 19.0.0, SVG Export Plug-In . SVG Version: 6.00 Build 0)  -->
<svg version="1.1" id="Layer_1" xmlns="http://www.w3.org/2000/svg" xmlns:xlink="http://www.w3.org/1999/xlink" x="0px" y="0px"
	 viewBox="366.5 -99.3 478.3 230.8" style="enable-background:new 366.5 -99.3 478.3 230.8;" xml:space="preserve">
<style type="text/css">
	.st0{fill:#FFFFFF;}
</style>
<g id="XMLID_130_">
	<g id="XMLID_250_">
		<g id="XMLID_251_">
			<path id="XMLID_259_" class="st0" d="M435.9-40.9c-1.5-2.1-3.2-3.8-5.1-5.2c-1.9-1.4-3.9-2.6-5.9-3.6c3.1-2,5.6-4.6,7.6-7.7
				c2-3.1,2.9-7.6,2.9-13.2c0-5.1-1-9.5-3-13.2s-4.7-6.6-8.2-8.9c-3.4-2.3-7.4-3.9-11.9-5s-9.2-1.6-14.2-1.6h-31.8l0.2,108.5h33.1
				c4.4,0,9-0.5,13.9-1.4c4.9-0.9,9.3-2.6,13.4-5.1c4.1-2.4,7.4-5.8,10-10c2.6-4.3,3.9-9.8,3.9-16.5c0-3.7-0.4-6.9-1.3-9.7
				C438.6-36.4,437.4-38.8,435.9-40.9z M385.5-83.5h12.6c2.1,0,4.3,0.2,6.5,0.5c2.2,0.4,4.1,1,5.9,2c1.7,1,3.1,2.3,4.3,3.9
				c1.1,1.7,1.7,3.8,1.7,6.4c0,2.6-0.5,4.8-1.6,6.6c-1.1,1.8-2.5,3.2-4.3,4.4c-1.8,1.1-3.9,2-6.3,2.5c-2.4,0.5-5,0.8-7.7,0.8h-11
				v-27.1H385.5z M398.5-6.6h-13v-34h18c1.9,0,3.9,0.3,6.1,0.9c2.2,0.6,4.2,1.5,6,2.8c1.8,1.3,3.3,3,4.4,5c1.2,2,1.8,4.4,1.8,7.3
				C421.8-12.6,414-6.6,398.5-6.6z"/>
			<path id="XMLID_256_" class="st0" d="M491.1-99.3l-37.6,86.1l11.8,2.5c1.9-4.4,2.4,10.7,4.6,5.4c2.2-5.3,4.3-10.2,6.3-14.8H516
				l12.6,29.3h20.1L501.1-99.3H491.1z M506.1-44.4c1,2.4,2.2,5.2,3.5,8.4h-27c2.4-6.2,4.7-11.9,6.9-17.3c2.3-5.4,4.4-10.8,6.6-16.1
				c1.5,4,2.9,7.4,4,10.1c1.1,2.7,2.2,5.3,3.1,7.6C504.1-49.2,505.1-46.8,506.1-44.4z"/>
			<polygon id="XMLID_255_" class="st0" points="554.4,9.2 573.4,9.2 573.4,-99.3 554.2,-99.3 			"/>
			<polygon id="XMLID_254_" class="st0" points="606.7,-99.3 587.7,-99.3 587.8,9.2 660.7,9.2 660.7,-6.6 606.7,-6.6 			"/>
			<polygon id="XMLID_253_" class="st0" points="688,-40.6 729.7,-40.6 729.7,-56.4 688,-56.4 688,-83.5 738.8,-83.5 738.8,-99.3 
				668.7,-99.3 668.9,9.2 742.7,9.2 742.7,-6.6 688,-6.6 			"/>
			<path id="XMLID_252_" class="st0" d="M822.7-99.3L802.1-70c-1.4,2-2.9,4.1-4.4,6.1c-1.5,2.1-3,4.1-4.5,6.1l-30.6-41.6h-22.1
				l43.7,58.7V9.1h19v-49.5l41.6-58.9C844.8-99.3,822.7-99.3,822.7-99.3z"/>
		</g>
	</g>
</g>
<g id="XMLID_67_">
	<path id="XMLID_68_" class="st0" d="M414.9,87.4c1.5,5,3.8,7.9,7.1,8.5c3.3,0.6,7,0,11.2-2s8.7-5,13.4-8.9s9.3-8.1,13.6-12.4
		c4.3-4.3,8.3-8.4,11.8-12.3c3.5-3.9,6.3-6.7,8.2-8.5c1.3-1.3,2.6-1.9,3.9-2c1.4-0.1,2.5,0.3,3.3,1c0.9,0.7,1.4,1.7,1.5,3
		c0.2,1.3-0.3,2.6-1.3,3.9c-2.3,2.5-5,5.5-8.3,8.9c-3.2,3.4-6.8,7-10.8,10.7c-3.9,3.7-8.1,7.3-12.5,10.9c-4.4,3.5-8.8,6.7-13.2,9.6
		c-4.4,2.8-8.7,5.1-12.9,6.8s-8.1,2.6-11.8,2.6c-4-0.1-7.3-1.3-10-3.7c-2.7-2.3-4.6-5.9-5.9-10.7c-1.4-4.4-2-8.9-2-13.5
		c0.1-4.6,0.4-9.1,1.1-13.7c3.8-24.4,12.1-46.1,25.1-65.3c2.6-3.6,5.4-7,8.4-10.1s6.2-5.8,9.6-8c2.5-1.6,5-2.8,7.6-3.7
		c2.6-0.9,5.3-1.2,8.1-0.9c2.7,0.2,5.3,1.1,7.7,2.6c2.4,1.5,4.4,3.4,6.2,5.8c1.7,2.4,3,5.1,3.9,8.2c0.9,3.1,1.3,6.3,1,9.6
		c-0.3,4.4-1.2,8.7-2.6,12.7c-1.4,4-2.9,8.1-4.5,12c-1,2.3-2.6,3-4.6,2.2c-1.1-0.5-1.9-1.2-2.2-2.2c-0.3-1-0.4-2.2-0.2-3.6
		c0.2-1.3,0.5-2.4,0.9-3.5c0.4-1.1,0.7-2.2,0.9-3.5c0.3-2.3,0.7-4.5,1.1-6.7c0.4-2.2,0.6-4.4,0.6-6.7c0-4.9-1.3-8.5-3.9-10.8
		c-2.6-2.3-5.9-2.5-9.7-0.7c-4.4,2.3-8.5,5.4-12.3,9.2c-5.5,6.3-10.1,13.3-13.8,21c-3.7,7.7-6.8,16-9.3,24.6
		c-0.9,3.1-1.7,6.2-2.4,9.2c-0.7,3.1-1.3,6.2-1.9,9.4c-0.6,3.6-1,7.2-1.2,10.7C413.9,80.9,414.1,84.2,414.9,87.4z"/>
	<path id="XMLID_70_" class="st0" d="M527.2,55.8c2.2,0.3,4.1,0.3,5.9,0s3.6-0.8,5.4-1.4c0.6-0.2,1.1-0.5,1.7-0.7
		c0.6-0.2,1.1-0.3,1.5-0.2c1.5,0.3,2.5,1.3,3.1,2.7c0.2,0.3,0.3,0.9,0.1,1.7c-0.2,0.8-0.5,1.4-0.9,1.7c-1.6,1.4-3.2,2.3-4.8,2.7
		c-1.7,0.5-3.4,0.9-5.1,1.2s-3.5,0.6-5.3,0.7c-1.3,0-2.3,0.3-3.2,0.8s-1.7,1.5-2.5,2.8c-1.7,3-3.8,5.3-6.2,7.1
		c-2.5,1.8-5.2,2.9-8.1,3.5c-2.7,0.7-5.2,0.7-7.4,0c-2.2-0.7-4.1-1.9-5.6-3.6c-1.5-1.7-2.6-3.8-3.2-6.4c-0.6-2.6-0.6-5.3,0-8.3
		c0.9-4.1,2.3-7.7,4.1-10.8c1.8-3.1,4.6-5.5,8.2-7.2c0.7-0.3,1.3-0.8,1.9-1.4c0.6-0.6,1.1-1.1,1.7-1.7c1.9-2.3,4.1-3.5,6.5-3.8
		c2.4-0.2,4.7,0.8,6.8,3.1c3.1,3.2,4.8,7.4,5.1,12.6c0,0.6,0,1.3,0.1,2.1C527,54.1,527.1,54.9,527.2,55.8z M506.7,53.6
		c-1.3,1.6-2.1,3.2-2.6,4.9s-0.9,3.4-1.1,5.2c-0.3,3.6,1,5.3,4.1,5c1.9-0.2,3.6-0.8,5-1.6c1.4-0.9,2.6-2.2,3.7-4.2
		c-1.9-0.9-3.7-1.9-5.3-3.1C508.9,58.6,507.6,56.6,506.7,53.6z M515.2,45.2c-0.5,2.6-0.5,4.3-0.1,5.1c0.4,0.8,1.6,1.5,3.5,2.1
		c-0.1-1.1-0.2-2.1-0.3-2.7c-0.1-0.7-0.3-1.3-0.5-1.7c-0.2-0.5-0.5-0.9-0.9-1.3C516.5,46.3,515.9,45.8,515.2,45.2z"/>
	<path id="XMLID_74_" class="st0" d="M558.5,63.3c-1.1,1.5-2.2,2.8-3.2,4s-2.1,2.4-3.1,3.5c-1,0.9-2.1,1.9-3.2,2.9
		c-1.1,1-2.2,1.8-3.3,2.4c-2.1,1.3-4,1.5-5.7,0.8c-1.8-0.7-3-2.2-3.7-4.5c-0.6-1.6-0.7-3.1-0.5-4.6c0.9-5.1,2.5-9.8,4.8-14
		s5.6-7.8,9.9-10.8c2.8-1.9,5.7-3,8.5-3.2s5.8,0.6,8.7,2.4c1.7,1,2.8,2,3.4,3c0.6,1,0.7,2.5,0.3,4.5c-0.2,1.8-0.5,3.6-0.9,5.4
		c-0.4,1.8-0.7,3.6-0.9,5.6c-0.2,1.7-0.5,3.4-0.7,5.2s-0.2,3.2,0.1,4.2s0.9,1.5,1.7,1.5c0.8,0,2.2-1,4.2-2.9
		c1.6-1.8,2.8-3.2,3.7-4.3c0.9-1.1,1.6-2,2.4-2.8c0.7-0.9,1.5-1.8,2.4-2.8c0.9-1,2.1-2.4,3.7-4.1c0.5-0.5,0.9-0.9,1.5-1.4
		c0.5-0.5,1.1-0.8,1.6-1c0.6-0.2,1.2-0.2,2,0.1c0.7,0.3,1.3,0.7,1.6,1.1c0.3,0.2,0.5,0.7,0.4,1.3c-0.1,0.6-0.1,1.2-0.3,1.8
		c-0.1,0.5-0.5,1-1.2,1.7c-1.4,1.7-2.5,3-3.2,4c-0.8,1-1.5,1.9-2.2,2.6c-0.7,0.8-1.5,1.7-2.3,2.6c-0.9,1-2,2.3-3.5,4
		c-1,1.3-2.1,2.4-3.2,3.4c-1.1,1-2.3,2-3.5,2.9c-3,1.9-5.5,2.8-7.6,2.7c-2.1-0.1-3.8-1-5.1-2.6s-2.3-3.7-2.8-6.3
		C558.6,69.1,558.4,66.3,558.5,63.3z M543.9,68.5c1.1-0.8,2.6-2.2,4.4-4.1c1.8-1.9,3.6-4,5.4-6.1s3.4-4.2,4.8-6.2
		c1.4-2,2.3-3.5,2.6-4.5c-1.9-0.2-3.9,0.1-5.8,1.1c-1.9,1-3.7,2.4-5.2,4.3c-1.5,1.9-2.9,4.2-4,6.8C545,62.5,544.3,65.4,543.9,68.5z"
		/>
	<path id="XMLID_77_" class="st0" d="M599,52.9c-3.1,5.7-4.8,9.9-5,12.5c-0.3,2.6,0.3,4.2,1.9,4.8c1.5,0.6,3.7,0.3,6.4-0.9
		c2.7-1.1,5.6-2.6,8.6-4.5c3-1.9,5.9-4,8.6-6.2c2.7-2.3,4.8-4.3,6.3-6c0.8-0.9,1.6-1.3,2.4-1.3c0.8,0.1,1.5,0.4,2.1,0.9
		c0.6,0.6,0.9,1.3,1,2.3c0.1,1-0.2,2-0.9,3c-2.1,2.1-4.6,4.4-7.6,6.9c-3,2.6-6.2,5-9.7,7.2c-3.4,2.2-6.9,4-10.4,5.4
		s-6.8,1.9-9.9,1.7c-3.1-0.2-5.5-1.6-7.3-4s-2.4-5.7-1.8-9.7c0.3-2.5,1-5.1,1.9-7.7c0.9-2.6,2.1-5,3.5-7.3c1.4-2.2,3.1-4.2,5-5.8
		c1.9-1.7,4.2-2.9,6.7-3.7c3.2-0.9,5.9-0.5,8.2,1.2c2.3,1.7,3.4,4.2,3.4,7.5c0.1,1.3,0,2.3-0.4,3.2c-0.4,0.9-1.3,1.7-2.6,2.2
		c-1.3,0.3-2.3,0.2-3.1-0.5s-1.4-1.5-1.7-2.6s-0.7-1.8-1.2-2.1c-0.5-0.2-0.9-0.2-1.5,0.2c-0.6,0.4-1,0.8-1.5,1.5
		C599.9,51.9,599.4,52.5,599,52.9z"/>
	<path id="XMLID_79_" class="st0" d="M669.7,68.3c1.8-2.2,3.5-4.3,5.1-6.4c1.6-2.1,3.2-4.3,4.8-6.6c0.5-0.6,0.9-1.1,1.2-1.5
		s0.7-0.8,1-1.3c0.7-0.7,1.4-1.2,2.1-1.5c0.7-0.3,1.5-0.1,2.4,0.4c0.9,0.7,1.4,1.4,1.5,2.1c0.1,0.7-0.2,1.5-0.8,2.3
		c-1,1.6-2,3.2-3,4.7s-2.1,3.1-3.3,4.7c-1.6,1.9-3.1,3.9-4.5,5.9s-3,3.8-4.9,5.6c-2.6,2.7-5.2,3.8-7.7,3.3s-4.5-2.5-6-5.9
		c-1.3-3.6-2-7.1-2.4-10.5c-0.3-3.4-0.7-6.8-1-10.2c-1.6,0.9-3.1,2.1-4.5,3.6c-1.4,1.5-2.8,3.1-4,5c-1.3,1.8-2.4,3.6-3.5,5.5
		c-1.1,1.8-2.1,3.4-3.2,4.8c-0.3,0.6-0.5,1.3-0.6,2.1c-0.1,0.8-0.1,1.5-0.3,2.2c-0.5,2.4-1.5,4-3.2,4.9s-3.5,0.7-5.6-0.6
		c-2.4-1.4-3.7-3.5-3.9-6.3c-0.6-5.2-0.7-11.6-0.5-19s0.7-14.8,1.5-22.1c0.7-7.3,1.7-14.2,2.9-20.6c1.2-6.4,2.5-11.2,4-14.5
		c0.7-1.7,1.7-2.9,3.2-3.5c1.4-0.6,2.8-0.8,4-0.6c1.3,0.2,2.2,0.9,2.9,2.1c0.7,1.1,0.7,2.7,0.2,4.6c-1.1,3.6-2.1,8.2-3,13.7
		c-0.9,5.5-1.6,11.1-2.2,16.8c-0.6,5.8-1.1,11.3-1.3,16.7s-0.3,9.9-0.3,13.4c2.3-2.8,4.5-5.6,6.7-8.2c2.2-2.6,4.6-5.1,7.2-7.3
		c2.6-2.3,5.1-3,7.4-2.2s3.9,2.9,4.7,6.3c0.5,1.9,0.7,3.9,0.9,5.9c0.1,2,0.3,4,0.5,6.1c0.1,1.6,0.3,3.2,0.4,4.7
		c0.2,1.5,0.4,2.7,0.8,3.6c0.4,0.9,0.9,1.2,1.5,1C667.5,71.3,668.5,70.2,669.7,68.3z"/>
	<path id="XMLID_81_" class="st0" d="M689.4,72.6c0.6,0.5,1.6,0,3-1.3s3-3,4.7-5c1.7-2.1,3.5-4.2,5.4-6.4s3.5-4,4.9-5.2
		c0.7-0.6,1.4-0.9,2.1-0.9c0.7,0,1.4,0.2,2,0.6c0.6,0.4,0.9,0.9,1.1,1.6c0.2,0.7,0,1.5-0.4,2.4c-0.6,1-1.3,2.1-2.1,3.1
		c-2.3,2.4-4.5,4.8-6.6,7.3s-4.3,5-6.6,7.3c-1.3,1.3-2.8,2.3-4.6,3.2c-3.3,1.7-6.3,1.9-9,0.7c-2.7-1.3-4.3-3.7-4.9-7.3
		c-0.6-3.6-0.5-7.6,0.3-11.8s1.9-8,3.4-11.3c0.6-1.5,1.4-2.5,2.6-3.1c1.1-0.6,2.3-0.6,3.6-0.2c2.6,0.9,3.8,2.8,3.4,5.8
		c-0.1,1.8-0.4,4-0.8,6.5c-0.4,2.5-0.7,4.7-0.9,6.5c-0.2,0.9-0.3,2-0.3,3.2S689.6,71,689.4,72.6z M689.9,33.4c0.6,0,1.2,0.3,1.8,0.8
		s1.2,1.1,1.7,1.7c0.5,0.6,0.9,1.3,1.2,2s0.4,1.3,0.3,1.7c-0.2,0.6-0.7,1.1-1.4,1.7c-0.7,0.6-1.3,0.9-1.9,1c-0.7,0-1.4-0.2-2.1-0.5
		s-1.3-0.8-1.8-1.5c-0.5-0.6-0.9-1.3-1.3-2s-0.5-1.3-0.5-1.9c0.2-0.9,0.7-1.7,1.4-2.3C688,33.6,688.8,33.3,689.9,33.4z"/>
	<path id="XMLID_84_" class="st0" d="M732.6,47.3c2.3-1.7,4.6-2.2,7-1.5s3.9,2.5,4.4,5.5c0.2,1.6,0.3,3.6,0.3,6s0,4.8,0.1,7.1
		c0.1,2.3,0.2,4.4,0.5,6.1c0.3,1.7,0.8,2.6,1.6,2.7c0.6,0,1.4-0.5,2.4-1.5c1.4-1.4,2.8-3,4.4-5c1.5-1.9,3-3.8,4.4-5.7s2.6-3.5,3.6-5
		c1-1.4,1.7-2.3,2.1-2.6c0.5-0.5,1-0.6,1.5-0.5c0.6,0.1,1.1,0.4,1.5,0.9s0.7,1,0.9,1.7s0.3,1.3,0.2,1.7c-0.2,1.4-1.1,3.2-2.6,5.5
		c-1.5,2.3-3.2,4.6-5.1,6.9c-1.9,2.3-4,4.4-6.1,6.3c-2.1,1.9-3.9,3.1-5.4,3.7c-2.2,0.8-4.2,0.8-6.2,0s-3.4-2.6-4.4-5.5
		c-0.6-1.8-0.9-3.8-1.1-5.9c-0.2-2.1-0.4-4.1-0.6-6.1c-0.1-1-0.2-2.1-0.2-3.2c0-1.1-0.1-2.4-0.2-3.8c-1.9,1.7-3.5,3.5-4.8,5.4
		s-2.5,3.8-3.6,5.7s-2.3,3.9-3.4,5.8c-1.1,1.9-2.5,3.8-4.1,5.5c-1.9,1.6-4.1,2.4-6.5,2.3c-2.4-0.1-4.3-1.2-5.6-3.3
		c-0.9-1.4-1.4-3-1.5-4.8s-0.2-3.6-0.3-5.3c0-4.2,0.3-8.5,0.8-12.7c0.5-4.3,1.5-8.5,2.8-12.6c0.3-1,0.7-1.9,1-2.6
		c1.5-3.5,3.5-4.7,6.2-3.6c1.1,0.2,2.1,0.9,2.8,2.1c0.7,1.2,0.8,2.7,0.3,4.5c-0.8,2.6-1.5,5.3-2.1,8s-1.1,5.3-1.3,7.7
		s-0.3,4.5-0.3,6.2c0.1,1.8,0.4,3,0.9,3.8c0.7,0.6,1.6,0,2.8-1.7c1.2-1.7,2.5-3.8,3.9-6.2s2.9-4.8,4.4-7.2
		C729.6,49.8,731.1,48.2,732.6,47.3z"/>
	<path id="XMLID_86_" class="st0" d="M785,69.5c-2.5,1.9-5.2,3.8-7.9,5.5c-2.8,1.7-5.4,2.8-7.9,3.3s-4.6,0.3-6.5-0.8
		c-1.9-1-3.2-3.2-3.8-6.7c-0.5-3-0.3-6.2,0.4-9.6c0.7-3.4,1.9-6.7,3.4-9.9s3.4-6.1,5.7-8.8s4.8-4.7,7.5-6.1c2.7-1.4,5.7-2,8.9-2
		c2.4,0.1,4.4,1,6.2,2.6c1.7,1.7,2.5,3.6,2.4,5.9c-0.2,1.8-1,3.2-2.2,4.3c-0.8,0.6-1.6,0.7-2.4,0.3c-0.8-0.3-1.5-1-2.1-1.9
		c-0.2-0.2-0.5-0.5-0.7-0.9s-0.5-0.7-0.7-0.9c-2.2,0.3-4.4,1.7-6.8,4.2c-2.3,2.5-4.4,5.2-6.1,8.2c-1.7,3-2.8,6-3.4,8.9
		c-0.6,2.9-0.2,5,1.2,6.2c1.5-0.3,3-1,4.6-2s3.1-2.1,4.4-3.3c1.4-1.3,2.6-2.6,3.8-4.1c1.1-1.5,2.1-2.9,2.9-4.3c0.5-0.7,1-1.3,1.5-2
		c0.6-0.6,1.3-1.1,2.1-1.5c2.2-1.1,4.1-1.1,5.9,0.1c1.8,1.2,2.7,3,2.8,5.6c0,2.3-0.1,4.6-0.2,6.9c-0.1,2.3-0.3,4.6-0.5,6.9
		c-0.9,8.4-2.5,16.6-4.8,24.4c-2.3,7.9-4.9,15.7-7.9,23.6c-0.5,1-0.9,2.1-1.5,3.2c-0.5,1.1-1.2,2.1-2.1,3c-1.6,1.6-3.4,2.7-5.5,3.4
		c-2.6,0.8-4.8,0.2-6.5-1.9c-0.9-1.1-1.3-2.2-1.1-3.2s0.5-2.2,0.9-3.4c1.5-3.6,3-7.7,4.5-12.2s3-9.1,4.4-13.8s2.6-9.4,3.8-14.1
		C783.2,78,784.2,73.6,785,69.5z"/>
</g>
</svg>
