<?xml version="1.0" encoding="utf-8"?>
<!-- Generator: Adobe Illustrator 19.0.0, SVG Export Plug-In . SVG Version: 6.00 Build 0)  -->
<svg version="1.1" id="Layer_1" xmlns="http://www.w3.org/2000/svg" xmlns:xlink="http://www.w3.org/1999/xlink" x="0px" y="0px"
	 viewBox="0 0 1500 275" style="enable-background:new 0 0 1500 275;" xml:space="preserve">
<style type="text/css">
	.st0{fill:#EDEDEB;}
	.st1{opacity:7.000000e-02;}
	.st2{fill:#2D2D2D;}
</style>
<rect id="XMLID_1_" x="-26.8" y="-188.3" transform="matrix(0.9992 -4.102168e-02 4.102168e-02 0.9992 -0.493 30.7893)" class="st0" width="1553.5" height="431.3"/>
<g id="XMLID_55_" class="st1">
	<polygon id="XMLID_56_" class="st2" points="1344.9,-32.3 1323.9,-37 1297.7,82.2 1318.5,86.8 	"/>
	<polygon id="XMLID_77_" class="st2" points="1508.3,110.7 1448.2,97.3 1456.5,60 1502.3,70.2 1506.1,52.8 1460.3,42.7 1466.9,12.9 
		1522.7,25.3 1526.6,7.9 1449.6,-9.1 1423.4,110 1504.4,128 	"/>
	<path id="XMLID_78_" class="st2" d="M1618.7,28.3l-29.7,27.2c-2,1.9-4.2,3.8-6.3,5.6c-2.2,1.9-4.3,3.8-6.4,5.6l-23.5-53.1
		l-24.3-5.4l33.7,75.1L1550,138l20.9,4.6l12-54.4l60-54.5L1618.7,28.3z"/>
	<path id="XMLID_88_" class="st2" d="M1214.9,115.2c0.2-1.5-0.1-2.7-0.9-3.7c-0.7-1-1.8-1.7-3.4-1.9c-1.5-0.2-3,0.1-4.8,1.2
		c-2.5,1.5-6.3,3.9-11.1,7.3c-4.8,3.4-10.2,7-15.9,10.6c-5.8,3.7-11.8,7.2-18,10.3c-6.1,3.1-11.8,5.3-16.9,6.5
		c-5.1,1.2-9.3,0.9-12.8-0.5c-3.5-1.5-5.3-5.2-5.7-11.1c-0.1-3.7,0.5-7.4,1.3-11.6c1.1-3.8,2.4-7.6,3.9-11.5
		c1.4-3.4,2.9-6.6,4.4-9.9c1.5-3.1,3.1-6.3,4.9-9.5c4.8-8.8,10.3-17.2,16.2-24.7c5.9-7.6,12.7-14.1,20.3-19.7
		c5.1-3.2,10.4-5.7,15.7-7.1c4.6-1.1,8.2,0,10.5,3.1c2.3,3.2,2.8,7.4,1.7,12.8c-0.6,2.5-1.3,4.9-2.3,7.2c-1,2.3-1.9,4.6-2.8,7.1
		c-0.5,1.4-1.1,2.5-1.8,3.6c-0.7,1.1-1.3,2.2-1.8,3.6c-0.6,1.5-0.7,2.8-0.7,4c0.1,1.2,0.8,2.1,1.9,3c2,1.4,3.9,1,5.6-1.3
		c2.7-3.9,5.4-8,7.9-12.1c2.5-4.1,4.5-8.6,5.9-13.3c1.1-3.6,1.5-7.2,1.2-10.8c-0.2-3.6-1-6.9-2.3-10c-0.1-0.2-0.1-0.3-0.2-0.5
		c1.4-2,2.8-3.9,4.1-5.7l43.7,9.7l6.7,35.2l22.1,4.9l-25.9-130.7l-11-2.4l-55.5,76.2c-2.1-0.4-4.2-0.5-6.3-0.3
		c-3.1,0.4-6.1,1.1-9.2,2.2c-2,0.7-4,1.6-5.9,2.6c1.4-2.9,2.6-6.3,3.4-10.1c0.9-4.1,1.2-7.7,0.9-11c-0.3-3.4-1-6.3-2.2-9
		c-1.1-2.7-2.6-5-4.3-7c-1.7-2-3.6-3.8-5.6-5.4c3.9-1.4,7.3-3.7,10.2-6.6s5-7.6,6.4-13.8c1.2-5.6,1.2-10.7-0.1-15.2
		s-3.6-8.4-6.8-11.8c-3.2-3.4-7.2-6.1-11.8-8.4c-4.7-2.3-9.7-4-15.2-5.2l-34.9-7.7l-26.2,119.2l36.3,8.1c4.8,1.1,10,1.6,15.6,1.8
		c4.2,0.2,8.1-0.3,12-1.2c-17,17.2-30.1,37.7-39.5,61.7c-1.9,4.9-3.3,9.7-4.5,14.8c-1.1,5.1-1.6,10.1-1.1,15.3
		c0.3,5.6,1.5,10,3.9,13.2c2.4,3.3,5.7,5.4,10.1,6.5c4.1,0.9,8.6,0.9,13.6,0c5-0.8,10.3-2.3,15.8-4.3c5.5-2.1,11.1-4.6,16.8-7.3
		c5.7-2.9,11.2-5.8,16.4-8.9c5.3-3.1,10.1-6.2,14.5-9.1c4.5-2.9,8.1-5.6,11.3-7.8C1213.9,118,1214.8,116.7,1214.9,115.2z
		 M1241.6-2.2c3.8-5.4,7.5-10.8,11.2-16.1c0.7,4.8,1.4,8.8,1.9,12.1s1.1,6.4,1.6,9.1c0.4,3,0.9,5.8,1.4,8.7
		c0.5,2.9,1.2,6.2,1.8,10.1l-29.6-6.6C1234,8.9,1237.9,3.2,1241.6-2.2z M1134.9-60.7l13.7,3c2.3,0.5,4.7,1.3,7,2.1
		c2.3,1,4.3,2.1,6,3.6c1.6,1.5,2.8,3.3,3.8,5.3c0.8,2.1,0.9,4.6,0.3,7.4c-0.6,2.9-1.7,5.1-3.4,6.9c-1.6,1.7-3.5,2.9-5.8,3.8
		c-2.2,0.8-4.8,1.2-7.5,1.2c-2.8,0-5.7-0.3-8.6-1l-12.1-2.7L1134.9-60.7z M1130.3,26.9l-14.3-3.2l8.3-37.3l19.8,4.4
		c2.1,0.5,4.2,1.3,6.5,2.5c2.3,1.2,4.2,2.7,5.9,4.5s2.9,4.1,3.6,6.6c0.8,2.5,0.9,5.3,0.2,8.5C1157.4,26,1147.4,30.7,1130.3,26.9z"/>
	<path id="XMLID_91_" class="st2" d="M1442.3,143c-0.5-0.7-1.1-1.2-1.8-1.3c-1.2-0.4-2.1-0.2-3,0.1c-0.9,0.5-1.7,1.2-2.1,2.2
		c-0.1,0.7-0.2,1.3,0.1,2.2c0.3,0.9,0.5,1.7,0.9,2.5c0.4,0.9,0.9,1.6,1.6,2.1c0.7,0.5,1.4,0.9,2.2,1.1c0.7,0,1.4-0.1,2.3-0.6
		c0.9-0.5,1.6-0.9,2-1.5c0.2-0.4,0.2-1.1,0.1-1.9c-0.2-0.8-0.4-1.7-0.8-2.5C1443.4,144.5,1442.9,143.7,1442.3,143z"/>
	<path id="XMLID_94_" class="st2" d="M1544.5,165.9c-3.5-0.8-7-0.9-10.3,0c-3.3,0.9-6.5,2.5-9.7,4.9c-3.2,2.4-6,5.1-8.4,8.3
		c-1.5,2-2.9,4-4.1,6.2c-1.1,1-2.3,2.1-3.7,3.3c-2,1.7-4.1,3.5-6.2,5.2c-2.2,1.8-4.2,3.2-6,4.4c-1.3,0.9-2.3,1.2-3,1.1
		c-0.9-0.3-1.2-1.4-1.1-3.4c0.1-1.9,0.5-4.3,0.9-6.8c0.4-2.5,1-5.2,1.6-7.8c0.6-2.6,1-4.9,1.1-6.7c0.2-3.4-1-5.8-3.5-7.1
		c-2.5-1.4-5.1-1.4-8.1-0.1c-1.9,0.6-3.9,2-6.2,4.2c-2.2,2.3-4.5,4.5-6.6,6.8c-2.1,2.3-4.1,4.3-5.8,5.9c-1.7,1.6-2.9,2-3.5,1.2
		c-0.4-1-0.4-2.4-0.1-4.4c0.4-1.9,1-4.1,1.8-6.7c0.8-2.6,2-5.3,3.3-8.1c1.3-2.8,2.7-5.6,4.3-8.3c1-1.9,1.2-3.5,0.8-5
		c-0.5-1.5-1.4-2.5-2.6-3c-2.7-1.9-5.2-1-7.7,2.4c-0.5,0.7-1.2,1.6-1.7,2.6c-2.4,4.2-4.5,8.6-6.1,13.2c-0.2,0.7-0.5,1.4-0.7,2.1
		c-1.5,1-3.3,2.2-5.3,3.7c-2.6,2-5.1,3.8-7.5,5.7c-2.4,1.8-4.5,3.3-6.4,4.3s-3.1,1.4-3.6,0.7c0.6-1.7,1.1-3.3,1.4-4.6
		c0.3-1.3,0.7-2.5,1.1-3.4c0.7-1.9,1.5-4.3,2.6-6.9c1-2.6,1.9-5,2.5-6.9c1.2-3.2,0.3-5.6-2.3-7.2c-1.3-0.8-2.6-1-4-0.7
		c-1.5,0.4-2.6,1.3-3.6,2.8c-1.1,1.5-2.2,3.1-3.2,4.9c-0.3,0.2-0.6,0.5-0.9,0.7c-2.3,2.1-4.6,4.2-6.9,6.1c-2.3,1.9-4.6,3.8-7.2,5.8
		c-1.8,1.8-3.1,2.8-3.9,2.8c-0.7,0.1-1.2-0.4-1.4-1.5c-0.2-1.1-0.1-2.5,0-4.1c0.3-1.7,0.4-3.5,0.7-5.3c0.3-2.4,0.6-4.6,0.9-6.8
		c0.3-2.2,0.5-4.5,0.4-6.7c-0.1-3.9-1.3-6.6-3.6-8.1c-2.3-1.4-5.2-1.3-8.7,0.6c-3.4,1.8-6.6,3.9-9.7,6.3c-3,2.3-6.1,4.9-9.4,7.4
		c0.9-3.8,2.1-8.8,3.6-14.6c1.5-5.9,3.4-11.8,5.5-18c2-6.1,4.2-12.1,6.5-17.9c0.8-2.1,1.6-4,2.4-5.8l21,4.6l3.8-17.3l-59.3-13.1
		l22.6-101.8l-20.9-4.6l-26.3,119.2l46.4,10.3c-0.6,1.2-1.1,2.5-1.7,3.9c-2.9,6.7-5.7,14.1-8.2,21.9c-2.4,7.1-4.5,14.3-6.4,21.6
		c-1.9,1.3-4.3,2.7-7.3,4.3c-3.5,1.8-7.2,3.4-11,4.7s-7.3,2.3-10.5,2.8c-3.3,0.7-5.7,0.5-7.2-0.6c-1.6-1-1.9-3-0.9-5.7
		c0.9-2.8,3.7-7,8.5-12.5c0.5-0.3,1.2-0.9,2-1.6c0.7-0.6,1.3-1,2-1.3c0.8-0.3,1.2-0.2,1.7,0.1c0.5,0.5,0.7,1.3,0.8,2.6
		c0.1,1.3,0.5,2.3,1.2,3.3c0.7,1,1.8,1.3,3.3,1.3c1.5-0.2,2.7-0.9,3.4-1.8c0.7-0.9,1-2,1.2-3.4c0.8-3.6,0.2-6.6-1.9-9.1
		c-2.1-2.4-5-3.5-8.7-3.3c-2.9,0.3-5.8,1-8.3,2.4c-2.5,1.3-4.8,3.1-6.9,5.2c-1.6,1.7-3.2,3.5-4.5,5.5c-1.6,1.1-2.9,2.1-3.9,2.8
		c-1.2,0.9-2.3,1.7-3.3,2.5c-1.1,0.7-2.1,1.5-3.3,2.5c-1.3,1-2.9,2.2-5.1,3.8c-2.7,1.6-4.4,2.4-5.3,2.2c-0.9-0.2-1.4-0.9-1.5-2.1
		c-0.1-1.2,0.3-2.7,0.9-4.6s1.4-3.7,2-5.5c0.7-2.1,1.5-4.1,2.4-5.9s1.6-3.8,2.3-5.7c0.9-2.1,1.2-3.8,0.8-5c-0.4-1.2-1.4-2.6-3-4.1
		c-2.7-2.7-5.8-4.3-9-4.8c-3.1-0.5-6.6,0-10.1,1.4c-5.3,2.2-9.8,5.3-13.3,9.2c-0.2,0-0.4,0-0.6,0c-0.7,0.1-1.3,0.3-2,0.4
		c-2.1,0.2-4.2,0.3-6.3,0.2c-2-0.1-4.1-0.6-6.5-1.4c0.1-1,0.2-1.9,0.5-3.1c0.1-0.9,0.3-1.7,0.4-2.3c0.9-5.8,0.1-10.8-2.5-15.1
		c-1.7-3-4-4.7-6.7-5.1c-2.7-0.3-5.4,0.5-8.1,2.6c-0.8,0.5-1.5,0.9-2.3,1.5c-0.8,0.5-1.6,0.9-2.4,1.1c-4.4,1-8,2.9-10.8,5.9
		c-2.7,3-5.1,6.6-7.1,10.9c-1.4,3.1-2,6.1-2,9.1c0,3,0.7,5.6,2,7.8c1.2,2.2,3,4,5.3,5.3s5,1.9,8.1,1.8c3.3,0,6.6-0.5,9.7-1.9
		c3.1-1.4,5.9-3.4,8.5-6.3c1.2-1.2,2.3-2.1,3.4-2.5c1.1-0.3,2.3-0.4,3.7-0.1c2,0.3,4.1,0.4,6,0.5c1.1,0,2.2,0.1,3.2,0
		c-0.9,1.6-1.7,3.3-2.4,5.1c-0.6,1.6-0.8,3.3-0.6,5.2c0.2,2.7,1.2,4.6,3,5.8c1.7,1.2,3.8,1.4,6.5,0.5c1.4-0.4,2.8-1,4.2-1.8
		c1.5-0.8,2.9-1.7,4.2-2.4c1.4-1,2.9-2,4.3-3.1c1.4-1.1,2.9-2.2,4.5-3.6c-0.8,3.3-1.3,6.4-1.1,9.3c-0.1,3,0.5,5.5,1.5,7.6
		c1,2.1,2.7,3.5,5,4.1c2.3,0.6,5.2,0.2,9-1.1c1.5-0.7,3.1-1.5,4.5-2.3c1.5-0.8,2.9-1.8,4.3-3c1.1-0.8,2-1.5,2.8-2.1
		c-0.3,2.4-0.1,4.6,0.8,6.5c1.4,3.1,3.7,5.2,7,6.2c3.4,1,7.1,1.2,11.3,0.5c4.2-0.7,8.5-1.8,12.7-3.4c4.4-1.6,8.5-3.4,12.4-5.5
		c0.9-0.5,1.8-0.9,2.6-1.4c-1.1,4.9-1.8,9.3-2.3,13.2c-0.5,3.1,0.5,5.7,2.7,7.9c2,1.9,3.9,2.6,6,2c2.1-0.6,3.6-2.1,4.7-4.6
		c0.4-0.7,0.6-1.5,0.9-2.3c0.3-0.9,0.7-1.6,1.2-2.2c1.5-1.3,3-2.8,4.7-4.5c1.7-1.8,3.3-3.5,5.2-5.2c1.8-1.8,3.7-3.2,5.6-4.5
		s3.8-2.3,5.8-2.9c-0.5,3.8-0.9,7.6-1.4,11.4c-0.4,3.8-0.5,7.8,0.1,12.1c0.8,4.1,2.5,6.8,5.2,7.9c2.6,1.2,5.7,0.6,9.3-1.7
		c2.5-1.5,4.7-3.1,6.7-5c0.9-0.8,1.7-1.6,2.6-2.3c-0.3,1.6-0.5,3.1-0.6,4.6c-0.2,4.1,1,7.1,3.6,9.2c2.7,2,6,2.5,10.1,1.4
		c2.2-0.6,4.1-1.3,5.8-2.4c3.1-2,6.1-4.2,9-6.4c1-0.8,2.1-1.6,3.2-2.4c0,0.1,0,0.2-0.1,0.3c-0.3,1.9-0.6,3.9-1,5.9
		c-0.3,2-0.2,3.9,0.5,5.6c0.9,2.6,2.7,4.3,5.3,5c2.6,0.7,5.2,0.4,7.7-0.9c2.2-1.5,4.2-3.2,5.8-5c1.7-1.8,3.5-3.7,5.1-5.5
		c1.7-1.8,3.5-3.6,5.3-5.4s4.1-3.4,6.6-4.8c-0.2,1.6-0.4,3-0.7,4.2c-0.3,1.2-0.4,2.4-0.6,3.6c-0.3,2.2-0.5,4.5-0.8,6.8
		c-0.3,2.4-0.4,4.6-0.2,6.7c0.4,3.4,1.5,5.7,3.5,7.1c2,1.4,4.2,1.9,6.8,1.5c1.8-0.3,4.1-1.2,6.8-2.7c2.3-1.3,4.7-2.8,7-4.5
		c0,0.1,0,0.1,0,0.2c-0.2,4,0.7,6.7,2.5,8.3c1.8,1.7,4.1,2.4,6.9,2.5c2.9,0.1,6-0.5,9.5-1.7c3.4-1.2,6.8-2.6,10-4.1
		c-1.9,4.3-4,8.9-6.8,13.6c-2.5,4.9-4.9,9.7-7.6,14.6c-2.7,4.8-5.4,9.5-8.2,14.1c-2.7,4.6-5.4,8.7-7.9,12.3
		c-0.7,1.2-1.4,2.5-1.8,3.5c-0.5,1-0.3,2.4,0.4,3.8c1.4,2.7,3.6,3.9,6.7,3.7c2.5-0.3,4.7-1,6.9-2.4c1.2-0.8,2.2-1.7,3-2.8
		c0.9-1.1,1.6-2.2,2.4-3.1c5.2-7.9,10-15.9,14.4-24c4.4-8,8.2-16.6,11.2-25.6c0.8-2.5,1.6-5,2.2-7.5c0.7-2.5,1.3-5,1.9-7.5
		c0.5-2.9,0-5.1-1.7-6.8c-1.7-1.8-3.8-2.2-6.5-1.5c-1,0.2-1.9,0.6-2.7,1.1c-0.7,0.6-1.4,1.2-2.1,1.8c-1.2,1.3-2.7,2.6-4.2,4
		c-1.7,1.4-3.3,2.5-5.2,3.6c-1.7,1-3.6,1.8-5.6,2.6c-2,0.7-3.8,1.1-5.5,1.1c-1.2-1.7-1.2-4.1,0.2-7.1s3.3-6.1,5.9-8.9
		c2.6-2.9,5.6-5.3,8.7-7.5c3.2-2.2,6-3.2,8.5-3c0.2,0.3,0.4,0.7,0.5,1.2c0.1,0.5,0.4,0.9,0.5,1.2c0.4,1.1,1,2.1,1.8,2.6
		c0.8,0.6,1.7,0.7,2.7,0.3c1.6-0.9,2.8-2.3,3.5-4.2c0.7-2.5,0.3-4.8-1.2-7.1C1549.1,168.1,1547.1,166.6,1544.5,165.9z M1237.1,135.5
		c-1.7,0.5-3.7,0.8-5.9,0.5c-3.5-0.4-4.5-2.6-3.3-6.5c0.7-1.9,1.5-3.7,2.5-5.4c1-1.7,2.2-3.3,4-4.7c0.3,3.5,1.2,6,2.7,7.7
		s3.2,3.2,5.1,4.7C1240.5,133.7,1238.9,134.8,1237.1,135.5z M1248.2,117.9c0,0.7-0.2,1.8-0.3,3c-1.9-1.1-3.1-2.2-3.3-3.2
		c-0.2-1,0.2-2.8,1.4-5.6c0.6,0.8,1.2,1.5,1.5,2.1c0.3,0.5,0.6,1,0.7,1.6C1248.2,116.4,1248.2,117.1,1248.2,117.9z M1291.7,130.3
		c-2,1.9-4.3,3.8-6.8,5.6c-2.5,1.9-5,3.7-7.4,5.4c-2.4,1.6-4.4,2.8-5.8,3.4c1.2-3.3,2.7-6.3,4.5-9c1.8-2.6,3.9-4.8,6-6.5
		c2.1-1.7,4.4-2.8,6.8-3.5c2.3-0.6,4.6-0.5,6.6,0.2C1295.1,127,1293.8,128.4,1291.7,130.3z"/>
</g>
</svg>
