<?xml version="1.0" encoding="utf-8"?>
<!-- Generator: Adobe Illustrator 19.0.0, SVG Export Plug-In . SVG Version: 6.00 Build 0)  -->
<svg version="1.1" id="Layer_1" xmlns="http://www.w3.org/2000/svg" xmlns:xlink="http://www.w3.org/1999/xlink" x="0px" y="0px"
	 viewBox="0 0 300 85.6" style="enable-background:new 0 0 300 85.6;" xml:space="preserve">
<g id="XMLID_3_">
	<path id="XMLID_4_" d="M71.3,73.8c-0.9-7.1,14.6-39.7,14.1-43.5c0-0.3-0.1-0.4-0.4-0.4C80.1,30.4,59.5,56,56.2,63.1l0.1,0.1
		c-1.6,0.2-3.1-1.3-3.2-2c-0.4-3.2,2.2-12.9,4.8-21.8c-2.8,4.3-6.8,9.4-10.9,14.2C36.7,66.1,24.6,77.9,20.4,78.5c-0.1,0-0.1,0-0.2,0
		c-0.4,0-2-1.6-2.1-2.4c-0.2-1.9,2.6-5.8,4.2-7.9c0,0,0.1-0.1,0.1-0.1c0.1,0,0.3,0.1,0.3,0.2c0,0,0,0,0,0c-2.3,3.8-3.2,6.4-3.2,7
		c0,0.2,0.4,0.3,0.8,0.2C25.5,74.9,50,51.3,59,35.6l0.2-0.6c-1.1,0.2-2.1,0.4-2.9,0.5c-9.5,2-25.9,7.2-25.6,10c0.1,1,2,0.8,2,1
		c0,0.2-0.3,0.2-0.6,0.3c-1.4,0.2-2.8-0.6-2.8-1.2c-0.2-1.4,2.7-3.4,6-4.9c6.8-3.1,18-5.6,24.1-6.5l0.7-2.2c0,0,0.1,0,0.1,0
		c0.6-0.1,2.1,1.2,2.3,1.6l-0.2,0.4c0.4,0,0.7,0,0.9,0c0.7,0.1,1,0.3,1.1,0.7c-0.7-0.1-1.5,0-2.4,0c-2,4.9-6.2,19.7-6.2,26
		c4.9-7.4,23.6-31.4,29.3-32.1c1.7-0.2,2.5,1.7,2.6,2.3C88,34,77,59,74.5,69.1c1.9-2.6,4.5-5.6,6.5-5.8c0.7-0.1,1,0.2,1,0.3
		c0,0,0,0,0,0.1c-0.1,0-0.3,0-0.4,0c-2.7,0.4-6.8,7.3-8.6,11.6C72.7,75.3,71.3,74.2,71.3,73.8z"/>
	<path id="XMLID_6_" d="M95.8,50.1c-0.3,0.1-0.7,0.1-0.8,0.1c-2.3,2.8-9.7,11.8-12.6,12.2c-0.8,0.1-1.6-1.4-1.6-1.6
		c-0.5-3.8,8.1-14.4,12.3-14.9c0.8-0.1,2.3,0.6,3,1.5c0.4-0.4,2.4-2.4,2.9-2.7c0.2,0,1.2,1,1.3,1.1c-0.8,1.3-3,5.4-4.4,9.1
		c-0.8,2.1-1,3.7-0.9,4.2c0,0.4,0.2,0.4,0.4,0.4c2-0.3,7.9-7.9,8.3-8.6c0.1-0.1,0.2-0.2,0.3-0.2c0.2,0,0.3,0.1,0.3,0.3
		c0.1,0.7-7.2,10.1-9.6,10.8l-0.1,0c-0.8,0.1-2.1-1.3-2.2-2c-0.1-0.5,0.1-1.5,1.1-4.1C94.3,53.3,95.4,50.9,95.8,50.1z M94.1,49.7
		c0.3-0.5,0.5-1.1,0.4-1.9c-0.1-0.5-0.4-0.8-0.8-0.7c-1.9,0.2-10.5,10.3-10.2,13.3C84.5,60.3,90.2,54.6,94.1,49.7z"/>
	<path id="XMLID_9_" d="M103.9,54.6c2.8-4,6.1-8,9.4-11.3c0.4-0.8,1.5-2.4,1.7-2.5c0.3-0.2,1.8,0.9,1.9,1.1
		c-1.2,2.3-3.6,5.7-3.4,8.5c0,0.4,0.2,1.9,1.3,1.7c1.3-0.2,2.6-1.7,2.7-1.7c0.1,0,0.1,0,0.1,0.1c0,0.4-1.7,2.3-2.8,2.5
		c-1.5,0.2-3.3-1.4-3.4-2.7c-0.1-1.2,0.3-3.1,0.8-4.6c-3.6,4.2-8,8.5-10,13.2c-0.4,1-0.4,1.2-0.5,1.7c-0.7,0-2-1.2-2.1-1.5
		c0.1-0.3,0.5-1.5,0.8-2.3c1-2.5,2.6-6.1,4-8.7c-0.4-0.2-0.9-0.5-0.9-0.7c0.5-0.1,1.7-1.4,2.9-2.6c0.2,0,1.6,1,1.6,1.5
		C107.5,47.4,105,51.5,103.9,54.6z"/>
	<path id="XMLID_11_" d="M128.2,28.6c0.4-0.1,2,1.6,2,1.9l-0.4,0.5c-2.1,3.1-4.2,7.2-6.6,12c-2.2,4.3-4,8.5-5,11.4
		c1.3-1.9,2.9-4,4.2-5.8c0.5-1.1,1-3.2,1.1-3.8c0.2-0.2,1.3-0.7,1.5-0.6c0.1,0.3,0.1,0.7,0.2,1c2.9-3.2,6-6,8-6.2
		c0.6-0.1,0.9,0.2,1.1,0.6c0.4,0.7,0.1,2.1-0.5,2.7c-0.5,0.6-0.8,0.5-0.7,0.4c0.4-0.6,0.5-1.5,0.3-2c-0.1-0.2-0.3-0.3-0.7-0.2
		c-1.6,0.2-5,3.6-7.2,6.1c0.7,2.5,1.7,4.9,3.2,7.3c2.4,3.9,5.6,7.7,7,7.5c0.9-0.1,2.2-1.2,1.9-3.6c0-0.2,0.4-0.2,0.4-0.1
		c0.7,2.4-0.8,5.1-2.6,5.3c-2.4,0.3-6-3.9-8.6-8.4c-1.1-1.9-2.1-4.1-2.8-6.2c-1.8,2.3-4.9,6.7-7.6,11c-0.1,0.2-1.6-0.9-1.6-1.2
		c-0.2-1.4,2.3-7.3,6-14.7c1.8-3.7,3.2-6.4,4.7-9c-0.4,0-0.9,0.1-1.3,0C126,32.7,127.2,30.4,128.2,28.6z"/>
	<path id="XMLID_13_" d="M161.2,54.1c-0.2-1.5,3.8-10.1,8.4-18.9c-1.5,0.1-3,0.3-4.6,0.6c-0.1,0-0.5-1-0.5-1.4
		c0.7-0.2,1.6-0.3,2.5-0.5c1-0.1,2.2-0.2,3.4-0.3c2-3.7,4-7.4,5.8-10.4c-0.9,0.5-1.7,0.6-2.2,0.3c0,0-0.1-0.1,0-0.1
		c1-0.1,2.7-1.5,4.2-3.4c0.7-0.8,1.2-1.8,1.8-2.4c-2.8-0.1-5.9,0.1-9,0.5c-4.1,0.5-9.4,1.7-9.2,3.7c0.1,1.2,1.4,1.5,2.6,2.2
		c0,0,0,0,0,0c0,0.1-0.2,0.1-0.3,0.2c-1.7-0.2-3.5-1.3-3.7-2.5c-0.3-2.7,7.1-4.1,10.8-4.6c2.6-0.3,5.9-0.5,9.4-0.4
		c0.4-0.7,0.8-1.3,1.1-2c0.8,0.6,1.3,1.2,1.7,1.7c0,0.1-0.1,0.2-0.2,0.4c6.5,0.3,12.6,1.6,13,4.4c0.6,4.5-12.8,9.6-22.5,12.6
		c11,0.2,25.1,3.2,25.7,7.2c0.6,4.6-12.1,12.4-26.6,17.8c-10.3,3.8-26.6,8.8-29.9,7.6c-0.8-0.4-1.6-1.9-1.3-2.8
		c0.7-2.3,5.1-4.4,7.6-5.6c0.1,0,0.3,0.2,0.3,0.3c-3.8,2.4-6.1,4-6,4.8c2.9,2.8,22.3-3,29-5.5c14.6-5.4,24.1-11.5,23.5-16
		c-0.6-4.7-14.1-6.9-24.1-6.4c-2.9,5.3-5.6,10.7-7.3,14.8c1.3-1.6,2.7-3.1,3.9-3.2c1-0.1,1.5,0.2,1.5,0.4c0,0,0,0,0,0.1
		c-0.3,0-0.5-0.1-0.8,0c-2.5,0.3-5.5,6.7-6.3,9C162.6,55.8,161.2,54.5,161.2,54.1z M173,32.9c8.7-3,20.1-8,19.6-11.5
		c-0.2-1.9-4.2-3.3-9.9-3.7C180.6,20.2,176.8,26.3,173,32.9z"/>
	<path id="XMLID_16_" d="M214.1,35.1c-0.3,0.1-0.7,0.1-0.8,0.1C211,38,203.6,47,200.7,47.4c-0.8,0.1-1.6-1.4-1.6-1.6
		c-0.5-3.8,8.1-14.4,12.3-14.9c0.8-0.1,2.3,0.6,3,1.5c0.4-0.4,2.4-2.4,2.9-2.7c0.2,0,1.2,1,1.3,1.1c-0.8,1.3-3,5.4-4.4,9.1
		c-0.8,2.1-1,3.7-0.9,4.2c0,0.4,0.2,0.4,0.4,0.4c2-0.3,7.9-7.9,8.3-8.6c0.1-0.1,0.2-0.2,0.3-0.2c0.2,0,0.3,0.1,0.3,0.3
		c0.1,0.7-7.2,10.1-9.6,10.8l-0.1,0c-0.8,0.1-2.1-1.3-2.2-2c-0.1-0.5,0.1-1.5,1.1-4.1C212.6,38.3,213.7,35.9,214.1,35.1z
		 M212.3,34.8c0.3-0.5,0.5-1.1,0.4-1.9c-0.1-0.5-0.4-0.8-0.8-0.7c-1.9,0.2-10.5,10.3-10.2,13.3C202.7,45.4,208.5,39.7,212.3,34.8z"
		/>
	<path id="XMLID_19_" d="M226.1,28.8c0.3,0,1.6,0.8,1.6,1c-0.2,0.4-1.7,2.9-1.6,3.9c-0.2,0.1-0.3,0.1-0.7-0.1
		c-1.5,2.4-4.6,8.1-4.4,9.4c0,0.3,0.2,0.3,0.4,0.3c1.5-0.2,7.3-6.4,9.2-8.7c0.4-0.5,1-0.2,0.6,0.3c-1.5,1.9-7.8,9.9-10.4,10.2
		c-0.2,0-1.8-0.8-2-2.2c-0.2-1.7,2.3-6.3,4.3-9.8C223.9,31.9,225.4,29.5,226.1,28.8z M233.2,19.5c-1.5,0.8-4.7,5.5-4.9,7
		c0,0.3,0,0.6,0.2,0.7c0,0-0.1,0.1-0.1,0.1c-0.7,0-1.2-0.9-1-1.5c0.3-1.9,2.2-6,3.8-7.9C231.4,17.7,233.2,18.8,233.2,19.5z"/>
	<path id="XMLID_22_" d="M243.2,14.7c-0.7,0.1-4.7,7.7-6.3,10.7c-3.3,6.6-6.7,14.4-6.4,16.2c0,0.2,0.1,0.4,0.3,0.4
		c1.6-0.2,7.9-6.3,10.9-9.6c0.1-0.1,0.3-0.2,0.4-0.1c0.1,0.1,0.2,0.3,0.1,0.5c-1.6,1.7-3.7,4.2-5.3,5.9c-2,2.1-5.6,5.5-6.8,5.6
		c-0.4,0.1-2-1.2-2.1-2.3c-0.2-1.6,3.5-10.1,7.2-17.4c0.8-1.6,1.6-3.2,2.4-4.6c-0.4,0.2-0.9,0.4-1.5,0.5c-0.3,0-0.4,0-0.4-0.1
		c0-0.2,0.6-0.1,1.8-1.5c1.6-1.7,3.6-4.7,3.8-5.9C241.8,13,243.1,14.3,243.2,14.7z"/>
	<path id="XMLID_24_" d="M248.6,32c-2.1,1.6-4.9,3.5-7,4.3c-1,1.8-1.3,3-1.2,4.2c0.1,0.6,0.3,0.8,1,0.7c3.8-0.5,11.1-7.3,13.5-10.4
		c0.1-0.2,0.4-0.3,0.6-0.4c0.1,0,0.1,0,0.2,0.1c0,0.1,0,0.3-0.2,0.6c-2.4,3.8-10.2,10.7-13.8,11.5c-1.8,0.4-4.1-1-4-3.2
		c0.2-3.5,3.7-7.6,6.6-10.3c0.8-0.7,3.6-3.2,5.5-3.5c0.2,0,0.4,0,0.6,0c0.5,0.1,1.8,0.8,1.9,1.5C252.4,28.9,250,30.8,248.6,32z
		 M242.5,35c1.3-0.7,3.6-2.1,5.7-3.9c2-1.7,3-3.5,2.9-4.2c-0.2,0-1,0.5-1.5,0.8C247.2,29.2,243.8,32.6,242.5,35z"/>
	<path id="XMLID_27_" d="M257.2,30.4c-0.3,0.5-2.5,5.2-2.3,6.9c0,0.2,0.1,0.3,0.3,0.3c3.1-0.4,10.8-10.4,15.9-14.8
		c0.2-0.1,1.3,1.1,1.3,1.7c-1.7,3.2-3.7,6.7-5.2,9.4c-4.7,8.4-8.2,18.1-9.9,24.2c0.3-0.8,0.6-1.6,1-2.4c1.4-3.4,3.8-8.6,6.2-8.9
		c0.2,0,0.5,0,0.7,0.1c-1.5-0.1-4.3,4.6-6.2,9.7c-1.3,3.3-2,6.4-2.3,7.5c-0.4,0.1-2.3-1.6-2.4-2c-0.3-2.1,5.6-19.8,11.4-29.9
		c0.8-1.4,2.5-4.7,4.3-7.3c-3.5,3.2-11.3,13.6-15.2,14.1c-0.2,0-1.9-1.5-2.1-2.6c-0.3-2.7,3.3-9.1,4.6-10.7c0.1-0.2,0.2-0.3,0.4-0.3
		c0.2,0,1.3,0.7,1.4,1c-0.3,0.6-1.4,3.8-0.8,3.9C258,30.5,257.5,30.5,257.2,30.4z"/>
</g>
</svg>
